<?xml version="1.0" encoding="UTF-8"?>
<svg id="Calque_2" data-name="Calque 2" xmlns="http://www.w3.org/2000/svg" viewBox="0 0 257.6 310.65">
  <defs>
    <style>
      .cls-1 {
        fill: #fff;
      }

      .cls-2 {
        fill: #1ae9ff;
      }
    </style>
  </defs>
  <g id="_Ñëîé_1" data-name="Ñëîé 1">
    <g>
      <path class="cls-2" d="M188.91,237.06c9.46,.02,22.62-2.53,22.62-2.53l-6.16-9.2c-2.92-4.37-13.3-23.17-21.28-37.84l18.63,4.19,.47-8.39c1.84-32.89-11.62-87.74-13-93.27l67.41-5.13-4.52-9.39c-10.71-22.27-27.38-41.12-48.22-54.49C183.45,7.26,158.63,0,133.08,0,97.53,0,64.11,13.84,38.98,38.98,13.84,64.11,0,97.53,0,133.08c0,27.17,8.04,53.07,23.31,75.26-2.71,3.45-5.29,6.81-7.72,10.04l-6.13,8.16,9.77,2.93c75.77,22.75,198.24,72.51,199.46,73.01l20.06,8.17-11.3-18.47c-11.94-19.52-28.29-41.66-38.55-55.11Z"/>
      <g>
        <path d="M175.62,84.01l71.06-5.41C226.35,36.33,183.13,7.14,133.09,7.14,63.52,7.14,7.13,63.54,7.13,133.1c0,28.3,9.33,54.43,25.1,75.46l.02-.02c-3.26,4.09-7.09,8.98-10.96,14.13,76.98,23.11,200.1,73.23,200.1,73.23-18.27-29.88-47.65-66.77-47.65-66.77,16.08,1.76,25.73,.18,25.73,.18-5.09-7.61-29.09-52.18-29.09-52.18l25.71,5.78c1.85-33.23-12.89-91.5-12.89-91.5l-9.73,6.25c-2.66-3.21-9.98-8.97-9.98-8.97,2.14-1.59,9.59-6.73,9.59-6.73l2.53,2.05Z"/>
        <path class="cls-1" d="M164.74,154.45s-15.69,7.25-20.33-6.98c0,0,4.21,.07,9.35,2.36-.92,.38-2.16,.75-3.82,.93,0,0,2.86,4.99,11.6,2.38,1.86,.76,3.21,1.3,3.21,1.3Z"/>
        <path class="cls-2" d="M167.29,78.95l-8.58,6.53c-14.66-8.65-35.21-13.14-56.49-3.76-3.59,1.58-7.21,3.56-10.82,5.97-24.99,16.75-27.06,43.44-27.06,43.44-1.6-7.99,1.55-44.73,37.17-58.13,3.46-1.3,6.86-2.29,10.2-3.02,31-6.79,55.58,8.97,55.58,8.97Z"/>
        <path class="cls-1" d="M93.44,192.98c2.08,5.64,7.76,16.46,7.76,16.46,0,0-19.85-5.7-24.06-19.26,11.7-11.51,7.11-22.35,7.11-22.35,14.13,2.87,13.1,17.6,9.19,25.14Z"/>
        <path class="cls-1" d="M71.9,221.31c2.2,4.1,3.27,7.6,3.27,7.6-22.09-8.42-39.06-14.48-39.06-14.48,7.26-9.43,13.13-16.01,13.13-16.01,1.05,2.51,2.55,4.77,4.08,6.65,3.03,3.73,6.17,6,6.17,6-2.03-8.29-1.83-14.46-.27-19.49h0c.09-.3,.18-.6,.3-.88,.56-1.6,1.26-3.08,2.06-4.47,2.45-4.26,5.91-7.74,9.51-11.39l-.38,10.14-3.11-1.38c1.85,14.07,6.79,20.33,19.8,27.19h.01c5.63,2.97,12.76,6.07,21.81,9.94,1.91,.82,3.75,1.6,5.54,2.34,.72,.3,1.43,.59,2.11,.87,10.47,4.29,18.96,7.39,25.48,9.58,9.77,3.28,15.15,4.54,16.21,4.77,.04,0,.09,.01,.14,.03,.03,0,.05,0,.05,0-7.67-8.52-13.42-16.19-13.42-16.19,2.39,1.07,14.96,4.58,14.96,4.58,7.65,7.21,41.93,52.36,41.93,52.36-49.18-26.23-130.32-57.77-130.32-57.77Z"/>
        <path class="cls-2" d="M165.11,178.09c9.22,17.82,23.9,45.58,23.9,45.58-57.3-1.86-82.83-32.86-82.83-32.86l.74-4.04c6.18-27.7-9.33-28.91-9.33-28.91,2.91,4.71,2.34,11.22,2.34,11.22-6.04-11.41-18.93-9.65-23.27-8.64l-.63-1.28c-2.71-5.69-4.41-11.95-4.88-18.58-2.1-29.4,20.74-54.98,51.03-57.15,10.77-.79,21.06,1.51,29.9,6.13h.01c5.5,2.86,10.48,6.64,14.66,11.12,0,0-41.06,23.11-48.21,27.28-7.14,4.17-12.35,14.01-12.35,14.01l19.92-11.05,32.62-18.08,15.31-8.51,4.56-2.53c1.9,4.87,3.38,9.73,4.52,14.35,0,0-1.63-1.45-5.63-4.01v.02c.25,.79,10.02,24.83,12.55,63.21l-10.62-2.48-.3-.07-.29-.06-.34-.08-7.66-1.79c.87-6.83,1.56-12.03,1.56-12.03,2.39-.73,4.33-1.67,5.85-2.61,.3-.18,.59-.37,.86-.56,2.6-1.79,3.72-3.44,3.72-3.44-7.55-1.28-25.72-9.14-32.47-11.31-12.7-4.1-23.45,2.08-23.45,2.08,9.29,21.93,30.95,19.91,30.95,19.91,.23,.75,2.94,6.73,6.71,14.08,.18,.35,.36,.71,.56,1.09Z"/>
        <path d="M125.4,156.62s8.02,16.37,27.47,19.05c0,0,15.43,32.81,18.42,36.96,0,0-8.01-1.54-11.54-6.09-3.54-4.54-12.91-25.29-12.91-25.29,0,0-19.98-4.29-21.44-24.63Z"/>
        <path class="cls-1" d="M152.08,89.55c-16.11-5.45-37.84-4.56-52.82,10.2-21.1,20.8-10.43,51.55-10.43,51.55,5.57,1.2,8.75,6.56,8.75,6.56,2.9,4.7,2.34,11.22,2.34,11.22-6.05-11.42-18.93-9.64-23.27-8.65l-.63-1.28c-2.71-5.69-4.41-11.95-4.89-18.58-2.11-29.4,20.74-54.98,51.02-57.15,10.78-.77,21.06,1.52,29.91,6.14Z"/>
        <path class="cls-1" d="M111.71,69.99s-7.09,3.41-9.49,11.73c-3.59,1.58-7.21,3.56-10.82,5.97-24.99,16.75-27.06,43.44-27.06,43.44-1.6-7.99,1.55-44.73,37.17-58.13,3.46-1.3,6.86-2.29,10.2-3.02Z"/>
        <path class="cls-1" d="M183.12,116.14s-1.63-1.44-5.63-4.01c-1.55-4.63-3.19-7.96-3.19-7.96l4.3-2.38c1.9,4.88,3.38,9.73,4.52,14.35Z"/>
        <path class="cls-1" d="M235.15,72.76c-4.03,.24-9.99,.58-16.56,.98l-40.17,2.73c-18.29-11.7-42.03-17.23-63.51-14.24l7.3-17.59c-54.45,7.58-71.86,48.44-71.35,87.36l-4.72-3.67s-2.53,27.01,13.21,47.57c0,0-6.57,7.24-11.09,12.25-1.41,1.56-2.34,2.58-2.34,2.58l-8.3,9.85c-13.83-19.3-21.97-42.95-21.97-68.5,0-1.01,.01-2.03,.04-3.04C17.19,69.96,62.19,21.69,119.86,15.09c4.45-.51,8.96-.78,13.55-.78,.54,0,1.09,0,1.62,.01,.6,.01,1.2,.02,1.8,.04,4.12,.11,8.19,.44,12.19,.98,14.87,1.97,28.86,6.7,41.44,13.69,3.27,1.81,6.43,3.77,9.5,5.88-8.42,8.46-9.72,12.95-9.72,12.95l20.56-4.55c9.63,8.4,17.88,18.34,24.35,29.44Z"/>
        <path class="cls-1" d="M119.86,15.09c-29.82,7.46-48.81,18.38-69.37,46.6-41.23,56.63-10.48,113.45-2.23,126.45-1.41,1.56-2.34,2.58-2.34,2.58l-8.3,9.85c-13.83-19.3-21.97-42.95-21.97-68.5,0-1.01,.01-2.03,.04-3.04C17.19,69.96,62.19,21.69,119.86,15.09Z"/>
        <path class="cls-2" d="M199.96,34.91c-7.59,8.09-9.72,12.95-9.72,12.95,0,0-2.22-7.26,2.32-17.64,3.27,1.81,4.34,2.58,7.4,4.69Z"/>
        <path d="M158.69,124.29l-1.15,3.9c-.44-.15-12.13-3.9-20.4,3.61,0,0,16.89-2.84,32.59,10.08,0,0-.93-10.74-11.05-17.59Z"/>
        <path class="cls-1" d="M164.56,177l-9.28-8.15c-28.38-1.39-28.38-25.84-28.38-25.84,9.29,21.93,30.94,19.91,30.94,19.91,.23,.75,2.94,6.73,6.71,14.08Z"/>
        <path class="cls-1" d="M178.82,172.76l-.34-.08-7.66-1.79c.87-6.83,1.56-12.03,1.56-12.03,2.39-.73,4.33-1.67,5.85-2.61,.17,4.51,.48,11.36,.59,16.51Z"/>
      </g>
    </g>
  </g>
</svg>